<svg viewBox="0 0 509 128" fill="none" xmlns="http://www.w3.org/2000/svg">
  <path
    d="M170.85 36.2H198.15C204.73 36.2 210.297 37.2267 214.85 39.28C219.042 41.0425 222.602 44.0339 225.06 47.86C227.361 51.6397 228.54 55.9957 228.46 60.42C228.511 64.8646 227.285 69.2305 224.93 73C222.302 76.982 218.545 80.0882 214.14 81.92C209.313 84.12 203.33 85.2167 196.19 85.21H170.85V36.2ZM195.91 72.74C200.343 72.74 203.75 71.6333 206.13 69.42C207.337 68.2497 208.28 66.8351 208.895 65.2708C209.511 63.7066 209.785 62.0289 209.7 60.35C209.774 58.7916 209.531 57.2343 208.984 55.773C208.437 54.3118 207.599 52.977 206.52 51.85C204.387 49.73 201.177 48.6667 196.89 48.66H188.35V72.74H195.91Z"
    fill="#5865F2" />
  <path
    d="M269.34 85.13C265.738 84.2275 262.293 82.7881 259.12 80.86V69.24C261.89 71.2549 265.009 72.7399 268.32 73.62C271.942 74.725 275.704 75.3009 279.49 75.33C280.797 75.3998 282.102 75.1742 283.31 74.67C284.17 74.23 284.6 73.67 284.6 73.09C284.609 72.7659 284.552 72.4434 284.431 72.1424C284.311 71.8414 284.13 71.5683 283.9 71.34C283.101 70.7257 282.164 70.317 281.17 70.15L272.77 68.26C267.957 67.14 264.54 65.59 262.52 63.61C261.506 62.5872 260.716 61.3648 260.199 60.0203C259.683 58.6758 259.451 57.2386 259.52 55.8C259.486 53.1927 260.436 50.6684 262.18 48.73C264.248 46.5427 266.855 44.9389 269.74 44.08C273.452 42.9132 277.329 42.3559 281.22 42.43C284.852 42.3959 288.474 42.8192 292 43.69C294.848 44.3648 297.583 45.4495 300.12 46.91V57.91C297.741 56.5299 295.184 55.4834 292.52 54.8C289.634 54.0261 286.658 53.6361 283.67 53.64C279.283 53.64 277.09 54.3867 277.09 55.88C277.083 56.2125 277.174 56.5398 277.352 56.8209C277.529 57.102 277.786 57.3243 278.09 57.46C279.289 57.9696 280.544 58.3322 281.83 58.54L288.83 59.8C293.377 60.6 296.767 62 299 64C301.233 66 302.353 68.9267 302.36 72.78C302.396 74.8062 301.9 76.8065 300.923 78.5819C299.946 80.3573 298.521 81.846 296.79 82.9C293.103 85.3733 287.84 86.6067 281 86.6C277.067 86.6061 273.149 86.1121 269.34 85.13Z"
    fill="#5865F2" />
  <path
    d="M318.9 83.66C315.158 81.9404 312.003 79.1584 309.83 75.66C307.803 72.2293 306.764 68.3044 306.83 64.32C306.77 60.338 307.864 56.4236 309.98 53.05C312.236 49.6066 315.447 46.8959 319.22 45.25C323.808 43.251 328.777 42.2816 333.78 42.41C340.78 42.41 346.59 43.88 351.21 46.82V59.65C349.452 58.4684 347.532 57.5488 345.51 56.92C343.246 56.2053 340.884 55.851 338.51 55.87C334.17 55.87 330.773 56.6633 328.32 58.25C327.217 58.8655 326.297 59.7622 325.653 60.8487C325.009 61.9353 324.665 63.173 324.655 64.4359C324.645 65.6988 324.969 66.9419 325.595 68.0387C326.222 69.1355 327.127 70.0468 328.22 70.68C330.6 72.2867 334.053 73.09 338.58 73.09C340.916 73.0956 343.241 72.7587 345.48 72.09C347.522 71.5045 349.484 70.6681 351.32 69.6V82C345.909 85.1547 339.732 86.7535 333.47 86.62C328.451 86.7569 323.468 85.7445 318.9 83.66Z"
    fill="#5865F2" />
  <path
    d="M368.64 83.66C364.856 81.932 361.646 79.1557 359.39 75.66C357.264 72.2374 356.161 68.2787 356.21 64.25C356.142 60.2691 357.248 56.3563 359.39 53C361.658 49.5931 364.854 46.9072 368.6 45.26C377.802 41.5265 388.098 41.5265 397.3 45.26C401.032 46.8946 404.215 49.5674 406.47 52.96C408.597 56.3287 409.693 60.2464 409.62 64.23C409.67 68.2546 408.577 72.2109 406.47 75.64C404.239 79.1381 401.044 81.9164 397.27 83.64C392.747 85.5798 387.877 86.58 382.955 86.58C378.033 86.58 373.163 85.5798 368.64 83.64V83.66ZM389.91 71.24C390.775 70.3472 391.448 69.2869 391.888 68.1245C392.329 66.962 392.526 65.7218 392.47 64.48C392.53 63.2498 392.334 62.0206 391.893 60.8705C391.453 59.7204 390.777 58.6747 389.91 57.8C388.969 56.9374 387.865 56.2725 386.663 55.8448C385.46 55.417 384.184 55.2352 382.91 55.31C381.637 55.243 380.363 55.4286 379.161 55.8559C377.96 56.2832 376.855 56.9439 375.91 57.8C375.046 58.6766 374.374 59.7229 373.935 60.8727C373.496 62.0224 373.3 63.2508 373.36 64.48C373.304 65.7209 373.501 66.9602 373.94 68.1223C374.378 69.2845 375.048 70.3453 375.91 71.24C376.846 72.1134 377.948 72.7892 379.151 73.2274C380.353 73.6655 381.632 73.8568 382.91 73.79C384.189 73.8644 385.47 73.6766 386.673 73.2381C387.877 72.7996 388.979 72.1196 389.91 71.24Z"
    fill="#5865F2" />
  <path
    d="M451.69 45V60.14C449.6 58.893 447.191 58.2846 444.76 58.39C441.03 58.39 438.15 59.53 436.15 61.79C434.15 64.05 433.15 67.56 433.15 72.32V85.2H416V44.25H432.8V57.25C433.733 52.49 435.24 48.98 437.32 46.72C438.328 45.6087 439.566 44.7292 440.947 44.1422C442.328 43.5553 443.82 43.2747 445.32 43.32C447.56 43.2589 449.771 43.842 451.69 45Z"
    fill="#5865F2" />
  <path
    d="M508.67 34.8V85.2H491.52V76C490.227 79.2753 487.903 82.0411 484.9 83.88C481.585 85.7688 477.814 86.7098 474 86.6C470.411 86.6836 466.878 85.6985 463.85 83.77C460.918 81.8651 458.582 79.1721 457.11 76C455.504 72.4986 454.705 68.6815 454.77 64.83C454.657 60.8367 455.508 56.8749 457.25 53.28C458.852 49.9872 461.351 47.214 464.46 45.28C467.656 43.3437 471.334 42.3489 475.07 42.41C483.23 42.41 488.713 45.9567 491.52 53.05V34.8H508.67ZM489 71C489.874 70.1397 490.559 69.1068 491.012 67.967C491.465 66.8272 491.675 65.6056 491.63 64.38C491.667 63.1911 491.452 62.0079 490.999 60.9082C490.545 59.8085 489.864 58.8174 489 58C487.038 56.4026 484.585 55.5304 482.055 55.5304C479.525 55.5304 477.072 56.4026 475.11 58C474.248 58.8361 473.572 59.8444 473.126 60.9591C472.68 62.0739 472.473 63.2702 472.52 64.47C472.476 65.6811 472.687 66.888 473.138 68.0127C473.589 69.1375 474.271 70.1551 475.14 71C476.059 71.8541 477.139 72.516 478.317 72.947C479.495 73.378 480.747 73.5694 482 73.51C483.275 73.5804 484.552 73.3946 485.754 72.9635C486.956 72.5324 488.06 71.8648 489 71Z"
    fill="#5865F2" />
  <path
    d="M242.92 48.61C247.642 48.61 251.47 45.1715 251.47 40.93C251.47 36.6885 247.642 33.25 242.92 33.25C238.198 33.25 234.37 36.6885 234.37 40.93C234.37 45.1715 238.198 48.61 242.92 48.61Z"
    fill="#5865F2" />
  <path
    d="M234.36 53.9C237.069 55.0383 239.977 55.6247 242.915 55.6247C245.853 55.6247 248.761 55.0383 251.47 53.9V85.42H234.36V53.9Z"
    fill="#5865F2" />
  <path
    d="M107.7 24.07C99.3467 20.2457 90.5282 17.5326 81.4699 16C80.2304 18.2159 79.1088 20.4957 78.1099 22.83C68.461 21.376 58.6488 21.376 48.9999 22.83C48.0005 20.496 46.8789 18.2161 45.6399 16C36.5758 17.5455 27.7515 20.2651 19.3899 24.09C2.7899 48.65 -1.7101 72.6 0.539904 96.21C10.2613 103.393 21.1423 108.855 32.7099 112.36C35.3146 108.857 37.6194 105.14 39.5999 101.25C35.8382 99.8451 32.2076 98.1117 28.7499 96.07C29.6599 95.41 30.5499 94.73 31.4099 94.07C41.4709 98.8014 52.4519 101.255 63.5699 101.255C74.6879 101.255 85.6689 98.8014 95.7299 94.07C96.5999 94.78 97.4899 95.46 98.3899 96.07C94.9256 98.115 91.2882 99.8517 87.5199 101.26C89.498 105.149 91.8029 108.862 94.4099 112.36C105.987 108.869 116.877 103.409 126.6 96.22C129.24 68.84 122.09 45.11 107.7 24.07ZM42.4499 81.69C36.1799 81.69 30.9999 76 30.9999 69C30.9999 62 35.9999 56.26 42.4299 56.26C48.8599 56.26 53.9999 62 53.8899 69C53.7799 76 48.8399 81.69 42.4499 81.69ZM84.6899 81.69C78.4099 81.69 73.2499 76 73.2499 69C73.2499 62 78.2499 56.26 84.6899 56.26C91.1299 56.26 96.2299 62 96.1199 69C96.0099 76 91.0799 81.69 84.6899 81.69Z"
    fill="#5865F2" />
</svg>