<svg viewBox="0 0 540 128" fill="none" xmlns="http://www.w3.org/2000/svg">
  <path
    d="M495.415 95.904H507.694V76.0197L524.827 95.904H539.85L519.904 72.9876L536.943 53.1171H523.271L507.694 71.4314V31L495.415 32.6109V95.904ZM467.099 52.0211C453.469 52.0211 444.003 61.1983 444.003 74.5039C444.003 87.8095 453.469 96.9867 467.099 96.9867C480.73 96.9867 490.196 87.8095 490.196 74.5039C490.196 61.1983 480.73 52.0211 467.099 52.0211ZM467.099 86.5101C460.784 86.5101 456.457 81.6236 456.457 74.5039C456.457 67.3842 460.784 62.4977 467.099 62.4977C473.414 62.4977 477.741 67.3842 477.741 74.5039C477.741 81.6236 473.414 86.5101 467.099 86.5101ZM417.201 52.0211C403.571 52.0211 394.105 61.1983 394.105 74.5039C394.105 87.8095 403.571 96.9867 417.201 96.9867C430.832 96.9867 440.298 87.8095 440.298 74.5039C440.298 61.1983 430.832 52.0211 417.201 52.0211ZM417.201 86.5101C410.887 86.5101 406.559 81.6236 406.559 74.5039C406.559 67.3842 410.887 62.4977 417.201 62.4977C423.517 62.4977 427.843 67.3842 427.843 74.5039C427.843 81.6236 423.517 86.5101 417.201 86.5101ZM370.211 52.0211C364.532 52.0211 359.826 54.2544 356.878 58.3421V31L344.586 32.5971V95.8902H355.485L355.701 89.2849C358.609 94.2118 363.815 96.9867 370.211 96.9867C381.867 96.9867 390.4 87.5115 390.4 74.5039C390.4 61.4959 381.908 52.0211 370.211 52.0211ZM367.304 86.5101C360.989 86.5101 356.662 81.6236 356.662 74.5039C356.662 67.3842 360.989 62.4977 367.304 62.4977C373.619 62.4977 377.946 67.3842 377.946 74.5039C377.946 81.6236 373.619 86.5101 367.304 86.5101ZM319.975 87.065C313.458 87.065 308.779 84.0329 307.183 78.8083H337.433C337.73 77.2112 337.933 75.316 337.933 74.0436C337.933 60.2777 330.239 52.0211 317.311 52.0211C304.262 52.0211 295.229 61.1983 295.229 74.5039C295.229 87.9855 304.695 96.9867 318.745 96.9867C326.02 96.9867 333.092 94.5503 337.514 90.5031L333.092 82.7067C328.805 85.6709 324.6 87.065 319.975 87.065ZM317.23 61.5772C322.91 61.5772 326.534 65.0287 326.534 70.3754V70.4162H306.926C308.103 64.7448 311.767 61.5772 317.23 61.5772ZM276 97C282.356 97 288.576 94.5637 292.957 90.3405L288.157 82.2598C284.749 84.9129 280.882 86.3475 277.217 86.3475C270.402 86.3475 265.858 81.5828 265.858 74.5172C265.858 67.4517 270.402 62.687 277.217 62.687C280.584 62.687 284.249 63.9052 287.224 66.0576L292.105 57.8006C288.157 54.2273 282.045 52.0345 275.987 52.0345C262.654 52.0345 253.229 61.3471 253.229 74.5172C253.242 87.6469 262.667 97 276 97ZM236.961 53.1171L236.745 59.7771C233.837 54.8093 228.631 52.0345 222.235 52.0345C210.538 52.0345 202.046 61.5097 202.046 74.5172C202.046 87.5252 210.592 97 222.235 97C228.631 97 233.851 94.2251 236.745 89.2983L236.961 95.9036H247.86V53.1171H236.961ZM225.142 86.5101C218.828 86.5101 214.5 81.6236 214.5 74.5039C214.5 67.3842 218.828 62.4977 225.142 62.4977C231.458 62.4977 235.784 67.3842 235.784 74.5039C235.784 81.6236 231.444 86.5101 225.142 86.5101ZM201.126 53.1976H190.079V49.5427C190.079 44.0743 192.215 41.9764 197.76 41.9764C199.477 41.9764 200.87 42.0169 201.668 42.0982V32.718C200.153 32.2982 196.461 31.8788 194.325 31.8788C183.033 31.8788 177.827 37.2117 177.827 48.7306V53.1839H170.85V63.5254H177.827V95.8894H190.092V63.5387H199.234L201.126 53.1976Z"
    fill="#0766FF" />
  <path
    d="M127.14 63.57C127.14 28.4613 98.6787 8.23505e-06 63.57 8.23505e-06C28.4613 8.23505e-06 0 28.4613 0 63.57C0 93.3831 20.5242 118.398 48.213 125.268V82.996H35.1044V63.57H48.213V55.1994C48.213 33.5622 58.0048 23.5334 79.2474 23.5334C83.2747 23.5334 90.2239 24.3229 93.0667 25.1127V42.7226C91.5662 42.5647 88.9604 42.4856 85.7226 42.4856C75.2989 42.4856 71.2714 46.4341 71.2714 56.6999V63.57H92.0356L88.4686 82.996H71.2714V126.674C102.748 122.873 127.14 96.0716 127.14 63.57Z"
    fill="#0866FF" />
  <path
    d="M88.4685 82.996L92.0358 63.5701H71.2715V56.6997C71.2715 46.4339 75.2988 42.4857 85.7225 42.4857C88.9603 42.4857 91.5661 42.5645 93.0666 42.7224V25.1128C90.2238 24.323 83.2746 23.5332 79.2473 23.5332C58.005 23.5332 48.2129 33.5622 48.2129 55.1994V63.5701H35.1042V82.996H48.2129V125.268C53.1314 126.488 58.2742 127.14 63.5699 127.14C66.1773 127.14 68.7465 126.979 71.2715 126.674V82.996H88.4685Z"
    fill="white" />
</svg>