<svg viewBox="0 0 528 128" fill="none" xmlns="http://www.w3.org/2000/svg">
  <path
    d="M189.193 26.3545C181.898 29.4079 173.879 38.0342 171.346 48.8621C168.139 62.5815 181.487 68.383 182.582 66.4808C183.87 64.2456 180.19 63.4897 179.432 56.3715C178.453 47.1777 182.727 36.9047 188.106 32.3971C189.106 31.5597 189.059 32.7253 189.059 34.8813C189.059 38.7367 188.846 73.347 188.846 80.5703C188.846 90.3442 188.442 93.4306 187.717 96.4804C186.982 99.571 185.801 101.659 186.696 102.464C187.696 103.364 191.965 101.223 194.437 97.7739C197.4 93.6371 198.437 88.6689 198.624 83.2735C198.849 76.7696 198.839 66.4492 198.849 60.5625C198.858 55.1635 198.94 39.3542 198.754 29.8502C198.709 27.519 192.244 25.0733 189.193 26.3517M448.225 72.0957C447.99 77.1769 446.865 81.1486 445.469 83.95C442.766 89.3734 437.159 91.0574 434.778 83.2611C433.48 79.0113 433.42 71.9137 434.352 65.9832C435.302 59.9418 437.954 55.3791 442.344 55.7906C446.675 56.1973 448.702 61.7777 448.225 72.0957ZM375.219 103.621C375.16 112.064 373.831 119.466 370.982 121.616C366.94 124.665 361.509 122.378 362.633 116.217C363.629 110.765 368.335 105.198 375.23 98.3952C375.23 98.3952 375.244 99.9465 375.219 103.621ZM374.115 72.0465C373.868 76.6745 372.668 81.3237 371.359 83.9506C368.657 89.374 363.009 91.0694 360.668 83.2617C359.068 77.9271 359.451 71.0228 360.243 66.6725C361.27 61.0282 363.761 55.7918 368.234 55.7918C372.584 55.7918 374.728 60.5629 374.115 72.0465ZM331.823 71.9757C331.557 76.8772 330.601 80.9746 329.067 83.9506C326.29 89.3367 320.798 91.0448 318.376 83.2617C316.629 77.6495 317.224 69.9971 317.95 65.8632C319.028 59.7288 321.728 55.3797 325.942 55.7918C330.271 56.2147 332.375 61.7777 331.823 71.9757ZM525.639 77.7009C524.581 77.7009 524.098 78.7916 523.699 80.6277C522.313 87.0117 520.856 88.4531 518.978 88.4531C516.88 88.4531 514.994 85.2921 514.51 78.9642C514.129 73.9884 514.19 64.8279 514.677 55.7156C514.777 53.8434 514.26 51.991 509.238 50.1667C507.078 49.3821 503.937 48.2267 502.373 52.0018C497.954 62.6671 496.225 71.1345 495.818 74.5742C495.797 74.7523 495.579 74.7886 495.541 74.3727C495.282 71.6177 494.702 66.6114 494.63 56.093C494.616 54.0408 494.181 52.2939 491.916 50.8638C490.446 49.9358 485.983 48.2945 484.376 50.2471C482.984 51.844 481.371 56.1416 479.696 61.2358C478.334 65.3762 477.386 68.1771 477.386 68.1771C477.386 68.1771 477.404 57.0054 477.42 52.7678C477.427 51.1692 476.331 50.6364 476 50.5399C474.512 50.1079 471.579 49.3863 470.335 49.3863C468.799 49.3863 468.423 50.2447 468.423 51.4955C468.423 51.6592 468.181 66.2041 468.181 76.3745C468.181 76.8162 468.181 77.2982 468.185 77.8102C467.336 82.4847 464.581 88.8301 461.585 88.8301C458.586 88.8301 457.171 86.1773 457.171 74.0526C457.171 66.9793 457.383 63.9037 457.487 58.7879C457.548 55.8413 457.665 53.5785 457.658 53.065C457.636 51.4903 454.913 50.6967 453.646 50.4033C452.373 50.1076 451.267 49.993 450.403 50.0422C449.181 50.1112 448.316 50.9132 448.316 52.0164C448.316 52.6079 448.322 53.7327 448.322 53.7327C446.748 51.2582 444.215 49.5359 442.53 49.0368C437.991 47.6889 433.255 48.8832 429.683 53.8821C426.844 57.8539 425.132 62.3524 424.458 68.8156C423.966 73.5406 424.127 78.3321 425.002 82.3844C423.944 86.9568 421.981 88.8301 419.831 88.8301C416.71 88.8301 414.447 83.7356 414.71 74.9248C414.883 69.1296 416.043 65.0627 417.31 59.179C417.851 56.6709 417.412 55.3578 416.31 54.0992C415.3 52.945 413.148 52.3554 410.053 53.0806C407.849 53.5977 404.698 54.1538 401.815 54.5809C401.815 54.5809 401.989 53.8868 402.132 52.6631C402.882 46.2455 395.908 46.7662 393.683 48.816C392.355 50.0398 391.451 51.4831 391.108 54.0782C390.564 58.1964 393.923 60.1389 393.923 60.1389C392.821 65.1833 390.119 71.773 387.33 76.5373C385.837 79.0899 384.694 80.9813 383.219 82.992C383.213 82.2433 383.209 81.4947 383.207 80.7495C383.173 70.1441 383.314 61.7973 383.376 58.7889C383.437 55.8423 383.555 53.6395 383.549 53.126C383.532 51.9742 382.859 51.5393 381.46 50.9886C380.223 50.5015 378.761 50.1644 377.244 50.0468C375.329 49.8975 374.175 50.9131 374.205 52.114C374.211 52.3408 374.211 53.7331 374.211 53.7331C372.636 51.2586 370.104 49.5363 368.419 49.0372C363.88 47.6898 359.144 48.8842 355.572 53.8825C352.733 57.8543 350.874 63.4278 350.347 68.7668C349.856 73.7428 349.947 77.9714 350.616 81.5335C349.894 85.1005 347.819 88.8306 345.473 88.8306C342.474 88.8306 340.767 86.1777 340.767 74.053C340.767 66.9798 340.979 63.9042 341.084 58.7889C341.144 55.8423 341.261 53.5789 341.255 53.066C341.233 51.4914 338.51 50.6977 337.243 50.4037C335.917 50.0972 334.772 49.9844 333.894 50.0492C332.734 50.1356 331.919 51.174 331.919 51.9485V53.7331C330.344 51.2586 327.811 49.5363 326.126 49.0372C321.588 47.6898 316.878 48.9035 313.279 53.8825C310.932 57.129 309.033 60.7284 308.055 68.696C307.772 70.9985 307.647 73.1547 307.664 75.17C306.728 80.8931 302.595 87.4892 299.214 87.4892C297.235 87.4892 295.351 83.6518 295.351 75.4735C295.351 64.5796 296.025 49.069 296.139 47.5741C296.139 47.5741 300.411 47.5015 301.238 47.4919C303.369 47.4685 305.299 47.5189 308.137 47.3737C309.56 47.3011 310.932 42.1925 309.463 41.5603C308.797 41.2741 304.091 41.0234 302.225 40.9838C300.656 40.9482 296.289 40.625 296.289 40.625C296.289 40.625 296.681 30.3298 296.772 29.2422C296.849 28.3358 295.677 27.8691 295.004 27.5859C293.369 26.8943 291.906 26.5631 290.172 26.2056C287.776 25.7113 286.689 26.1948 286.476 28.217C286.157 31.286 285.991 40.2753 285.991 40.2753C284.233 40.2753 278.227 39.9316 276.468 39.9316C274.834 39.9316 273.07 46.9592 275.329 47.0456C277.929 47.1464 282.458 47.2334 285.461 47.324C285.461 47.324 285.328 63.0901 285.328 67.9576C285.328 68.4754 285.332 68.9741 285.333 69.458C283.68 78.0724 277.859 82.7256 277.859 82.7256C279.109 77.0267 276.555 72.7472 271.955 69.1245C270.261 67.7895 266.915 65.2622 263.172 62.4927C263.172 62.4927 265.34 60.3559 267.263 56.0572C268.625 53.0122 268.684 49.5274 265.34 48.759C259.815 47.4884 255.259 51.546 253.901 55.8778C252.848 59.2336 253.409 61.7237 255.472 64.3104C255.622 64.4994 255.786 64.6925 255.954 64.8869C254.707 67.2907 252.994 70.5271 251.543 73.0369C247.515 80.0052 244.472 85.5169 242.173 85.5169C240.335 85.5169 240.36 79.9211 240.36 74.6818C240.36 70.1651 240.693 63.3745 240.959 56.3439C241.048 54.0188 239.885 52.6942 237.936 51.4945C236.752 50.7656 234.225 49.3325 232.761 49.3325C230.57 49.3325 224.249 49.6306 218.277 66.9067C217.524 69.0842 216.045 73.0519 216.045 73.0519L216.173 52.2767C216.173 51.7896 215.913 51.3187 215.319 50.9965C214.313 50.4501 211.625 49.3325 209.234 49.3325C208.096 49.3325 207.527 49.8622 207.527 50.918L207.319 83.4209C207.319 85.8905 207.383 88.7716 207.627 90.0316C207.871 91.2933 208.265 92.3197 208.753 92.9303C209.24 93.5398 209.804 94.0047 210.734 94.1966C211.599 94.3747 216.336 94.9831 216.583 93.1726C216.878 91.003 216.889 88.6562 219.377 79.9038C223.249 66.2774 228.299 59.6289 230.672 57.2677C231.087 56.855 231.561 56.8304 231.538 57.5059C231.437 60.4933 231.081 67.9583 230.841 74.3003C230.198 91.2722 233.285 94.418 237.698 94.418C241.073 94.418 245.831 91.064 250.932 82.5739C254.112 77.283 257.2 72.0951 259.418 68.356C260.964 69.7871 262.699 71.3274 264.433 72.9728C268.461 76.7966 269.784 80.43 268.907 83.8769C268.235 86.5119 265.707 89.2275 261.208 86.5881C259.897 85.818 259.337 85.2231 258.019 84.3549C257.31 83.8886 256.229 83.7492 255.58 84.2377C253.896 85.5078 252.932 87.1233 252.382 89.1233C251.847 91.0694 253.796 92.0981 255.816 92.998C257.556 93.7724 261.295 94.4742 263.68 94.5541C272.971 94.8648 280.414 90.0681 285.595 77.6949C286.522 88.3807 290.469 94.4275 297.327 94.4275C301.912 94.4275 306.509 88.5011 308.519 82.671C309.096 85.0475 309.951 87.1142 311.054 88.8618C316.338 97.2344 326.59 95.4323 331.739 88.3226C333.331 86.1258 333.574 85.3364 333.574 85.3364C334.325 92.0496 339.731 94.3952 342.826 94.3952C346.293 94.3952 349.872 92.7563 352.381 87.1084C352.675 87.7214 352.996 88.3067 353.346 88.8616C358.631 97.2342 368.882 95.4321 374.032 88.3225C374.274 87.989 374.485 87.6864 374.669 87.4149L374.82 91.8245C374.82 91.8245 371.883 94.5193 370.079 96.1725C362.143 103.454 356.108 108.978 355.664 115.411C355.094 123.614 361.747 126.663 366.78 127.062C372.125 127.486 376.702 124.534 379.516 120.402C381.99 116.765 383.61 108.937 383.491 101.206C383.444 98.1096 383.366 94.173 383.305 89.9535C386.094 86.7141 389.237 82.6199 392.131 77.8274C395.284 72.6047 398.664 65.591 400.395 60.1326C400.395 60.1326 403.331 60.1578 406.465 59.9527C407.467 59.8873 407.755 60.0918 407.57 60.8267C407.346 61.7145 403.611 76.1226 407.02 85.7207C409.353 92.2912 414.614 94.4052 417.733 94.4052C421.383 94.4052 424.876 91.6481 426.748 87.554C426.973 88.0104 427.209 88.4521 427.466 88.8598C432.751 97.2324 442.966 95.4195 448.151 88.3207C449.322 86.719 449.986 85.3344 449.986 85.3344C451.099 92.2822 456.502 94.4286 459.597 94.4286C462.82 94.4286 465.88 93.107 468.362 87.2336C468.466 89.8197 468.629 91.9343 468.887 92.6009C469.044 93.0086 469.96 93.5205 470.627 93.7676C473.576 94.8612 476.584 94.3441 477.696 94.1191C478.467 93.9631 479.068 93.3447 479.15 91.7477C479.366 87.5546 479.234 80.5095 480.505 75.2737C482.639 66.4866 484.629 63.078 485.573 61.3906C486.102 60.4451 486.698 60.2892 486.72 61.2898C486.764 63.3144 486.865 69.2599 487.692 77.2479C488.299 83.1228 489.11 86.5953 489.733 87.6943C491.512 90.8371 493.708 90.9859 495.497 90.9859C496.635 90.9859 499.015 90.6715 498.802 88.6715C498.698 87.6966 498.88 81.672 500.984 73.0151C502.358 67.3618 504.648 62.2537 505.474 60.3863C505.779 59.6976 505.92 60.2405 505.916 60.3463C505.742 64.2395 505.351 76.9739 506.937 83.9386C509.087 93.3735 515.307 94.4293 517.474 94.4293C522.101 94.4293 525.885 90.9097 527.16 81.6488C527.467 79.4201 527.012 77.6992 525.65 77.6992"
    fill="#262626" />
  <g clip-path="url(#clip0_12_132)">
    <path
      d="M64.0291 4.90904C39.3553 4.90904 32.1392 4.9345 30.7365 5.05086C25.673 5.47175 22.5222 6.269 19.0896 7.97804C16.4442 9.29164 14.3579 10.8143 12.2988 12.9488C8.54896 16.8414 6.2763 21.6304 5.4536 27.3229C5.05361 30.0865 4.93725 30.6501 4.91362 44.766C4.90453 49.4713 4.91362 55.6639 4.91362 63.97C4.91362 88.6238 4.94089 95.8326 5.05907 97.2326C5.46815 102.16 6.24085 105.26 7.87716 108.65C11.0043 115.141 16.9769 120.014 24.013 121.832C26.4493 122.459 29.1402 122.805 32.5946 122.968C34.0582 123.032 48.9759 123.077 63.9027 123.077C78.8296 123.077 93.7564 123.059 95.1836 122.986C99.1835 122.798 101.506 122.486 104.074 121.823C111.156 119.996 117.019 115.196 120.21 108.614C121.815 105.305 122.628 102.087 122.996 97.4171C123.076 96.399 123.11 80.1658 123.11 63.9545C123.11 47.7405 123.074 31.5373 122.994 30.5192C122.621 25.7739 121.807 22.583 120.151 19.2104C118.792 16.4496 117.283 14.3878 115.092 12.2797C111.182 8.5453 106.401 6.27264 100.703 5.45084C97.9417 5.05177 97.3917 4.93359 83.2649 4.90904H64.0291Z"
      fill="url(#paint0_radial_12_132)" />
    <path
      d="M64.0291 4.90904C39.3553 4.90904 32.1392 4.9345 30.7365 5.05086C25.673 5.47175 22.5222 6.269 19.0896 7.97804C16.4442 9.29164 14.3579 10.8143 12.2988 12.9488C8.54896 16.8414 6.2763 21.6304 5.4536 27.3229C5.05361 30.0865 4.93725 30.6501 4.91362 44.766C4.90453 49.4713 4.91362 55.6639 4.91362 63.97C4.91362 88.6238 4.94089 95.8326 5.05907 97.2326C5.46815 102.16 6.24085 105.26 7.87716 108.65C11.0043 115.141 16.9769 120.014 24.013 121.832C26.4493 122.459 29.1402 122.805 32.5946 122.968C34.0582 123.032 48.9759 123.077 63.9027 123.077C78.8296 123.077 93.7564 123.059 95.1836 122.986C99.1835 122.798 101.506 122.486 104.074 121.823C111.156 119.996 117.019 115.196 120.21 108.614C121.815 105.305 122.628 102.087 122.996 97.4171C123.076 96.399 123.11 80.1658 123.11 63.9545C123.11 47.7405 123.074 31.5373 122.994 30.5192C122.621 25.7739 121.807 22.583 120.151 19.2104C118.792 16.4496 117.283 14.3878 115.092 12.2797C111.182 8.5453 106.401 6.27264 100.703 5.45084C97.9417 5.05177 97.3917 4.93359 83.2649 4.90904H64.0291Z"
      fill="url(#paint1_radial_12_132)" />
    <path
      d="M64.0018 20.3631C52.1513 20.3631 50.664 20.4149 46.0096 20.6268C41.3643 20.8395 38.1935 21.5749 35.419 22.654C32.5491 23.7685 30.1147 25.2593 27.6893 27.6856C25.2621 30.111 23.7712 32.5455 22.6531 35.4145C21.5713 38.1899 20.8349 41.3616 20.6258 46.0051C20.4177 50.6595 20.3631 52.1476 20.3631 63.9982C20.3631 75.8487 20.4159 77.3314 20.6268 81.9858C20.8404 86.6311 21.5758 89.8019 22.654 92.5764C23.7694 95.4463 25.2603 97.8808 27.6865 100.306C30.111 102.733 32.5455 104.228 35.4136 105.342C38.1899 106.421 41.3616 107.157 46.006 107.37C50.6604 107.581 52.1467 107.633 63.9964 107.633C75.8478 107.633 77.3305 107.581 81.9849 107.37C86.6302 107.157 89.8047 106.421 92.5809 105.342C95.4499 104.228 97.8808 102.733 100.305 100.306C102.732 97.8808 104.223 95.4463 105.341 92.5773C106.414 89.8019 107.151 86.6302 107.369 81.9867C107.578 77.3323 107.632 75.8487 107.632 63.9982C107.632 52.1476 107.578 50.6604 107.369 46.006C107.151 41.3607 106.414 38.1899 105.341 35.4154C104.223 32.5455 102.732 30.111 100.305 27.6856C97.8781 25.2584 95.4509 23.7676 92.5782 22.654C89.7965 21.5749 86.6239 20.8395 81.9785 20.6268C77.3241 20.4149 75.8424 20.3631 63.9882 20.3631H64.0018ZM60.0874 28.2265C61.2492 28.2247 62.5455 28.2265 64.0018 28.2265C75.6524 28.2265 77.0332 28.2683 81.634 28.4774C85.8884 28.672 88.1974 29.3829 89.7356 29.9801C91.7719 30.771 93.2237 31.7164 94.75 33.2436C96.2772 34.7709 97.2226 36.2254 98.0153 38.2617C98.6126 39.798 99.3244 42.107 99.518 46.3614C99.7271 50.9613 99.7725 52.3431 99.7725 63.9882C99.7725 75.6333 99.7271 77.015 99.518 81.6149C99.3235 85.8693 98.6126 88.1783 98.0153 89.7146C97.2244 91.751 96.2772 93.2009 94.75 94.7272C93.2227 96.2544 91.7728 97.1999 89.7356 97.9908C88.1993 98.5907 85.8884 99.2998 81.634 99.4943C77.0341 99.7034 75.6524 99.7489 64.0018 99.7489C52.3503 99.7489 50.9695 99.7034 46.3696 99.4943C42.1152 99.298 39.8062 98.5871 38.2671 97.9898C36.2308 97.199 34.7763 96.2535 33.2491 94.7263C31.7219 93.1991 30.7765 91.7482 29.9837 89.711C29.3865 88.1747 28.6747 85.8657 28.4811 81.6113C28.272 77.0114 28.2302 75.6296 28.2302 63.9772C28.2302 52.3249 28.272 50.9504 28.4811 46.3505C28.6756 42.0961 29.3865 39.7871 29.9837 38.2489C30.7746 36.2126 31.7219 34.7581 33.2491 33.2309C34.7763 31.7037 36.2308 30.7583 38.2671 29.9656C39.8053 29.3656 42.1152 28.6565 46.3696 28.4611C50.3949 28.2793 51.9549 28.2247 60.0874 28.2156V28.2265ZM87.2938 35.4718C84.403 35.4718 82.0576 37.8144 82.0576 40.7061C82.0576 43.597 84.403 45.9423 87.2938 45.9423C90.1847 45.9423 92.53 43.597 92.53 40.7061C92.53 37.8153 90.1847 35.4699 87.2938 35.4699V35.4718ZM64.0018 41.5898C51.6267 41.5898 41.5934 51.6231 41.5934 63.9982C41.5934 76.3732 51.6267 86.402 64.0018 86.402C76.3769 86.402 86.4066 76.3732 86.4066 63.9982C86.4066 51.6231 76.3769 41.5898 64.0018 41.5898ZM64.0018 49.4531C72.0343 49.4531 78.5468 55.9648 78.5468 63.9982C78.5468 72.0306 72.0343 78.5432 64.0018 78.5432C55.9684 78.5432 49.4568 72.0306 49.4568 63.9982C49.4568 55.9648 55.9684 49.4531 64.0018 49.4531Z"
      fill="white" />
  </g>
  <defs>
    <radialGradient id="paint0_radial_12_132" cx="0" cy="0" r="1" gradientUnits="userSpaceOnUse"
      gradientTransform="translate(36.3067 132.179) rotate(-90) scale(117.113 108.954)">
      <stop stop-color="#FFDD55" />
      <stop offset="0.1" stop-color="#FFDD55" />
      <stop offset="0.5" stop-color="#FF543E" />
      <stop offset="1" stop-color="#C837AB" />
    </radialGradient>
    <radialGradient id="paint1_radial_12_132" cx="0" cy="0" r="1" gradientUnits="userSpaceOnUse"
      gradientTransform="translate(-14.8896 13.4217) rotate(78.6776) scale(52.3507 215.846)">
      <stop stop-color="#3771C8" />
      <stop offset="0.128" stop-color="#3771C8" />
      <stop offset="1" stop-color="#6600FF" stop-opacity="0" />
    </radialGradient>
    <clipPath id="clip0_12_132">
      <rect width="120" height="119.996" fill="white" transform="translate(4 4)" />
    </clipPath>
  </defs>
</svg>