<svg width="5072" height="1323" viewBox="0 0 5072 1323" fill="none"
  xmlns="http://www.w3.org/2000/svg">
  <path d="M667 645C667 848.733 667 984.556 667 1027" stroke="#DA3AD7" stroke-width="32" />
  <path d="M920 964C785.067 997.6 695.111 1020 667 1027" stroke="#C8C8C8" stroke-width="32" />
  <path d="M920 582C785.067 615.6 695.111 638 667 645" stroke="#00B3E3" stroke-width="32" />
  <path d="M289 359C289 562.733 289 698.556 289 741" stroke="#FF6B00" stroke-width="32" />
  <path d="M542 296C542 499.733 542 635.556 542 678" stroke="#FFC843" stroke-width="32" />
  <path d="M542 678C407.067 711.6 317.111 734 289 741" stroke="#05CE7C" stroke-width="32" />
  <path d="M542 296C407.067 329.6 317.111 352 289 359" stroke="#DA2D2F" stroke-width="32" />
  <path d="M667 513C532.067 546.6 442.111 569 414 576" stroke="#042F57" stroke-width="32" />
  <path d="M667 645C667 574.6 667 527.667 667 513" stroke="#973ADA" stroke-width="32" />
  <circle cx="289" cy="359" r="60" fill="#DA2D2F" />
  <circle cx="289" cy="741" r="60" fill="#FF6B00" />
  <circle cx="542" cy="678" r="60" fill="#05CE7C" />
  <circle cx="667" cy="1027" r="60" fill="#C8C8C8" />
  <circle cx="920" cy="964" r="60" fill="#603814" />
  <circle cx="542" cy="296" r="60" fill="#FFC843" />
  <circle cx="414" cy="576" r="60" fill="#042F57" />
  <circle cx="667" cy="513" r="60" fill="#973ADA" />
  <circle cx="667" cy="645" r="60" fill="#DA3AD7" />
  <circle cx="920" cy="582" r="60" fill="#00B3E3" />
  <path
    d="M1562 662C1562 719.6 1542.8 768.8 1504.4 809.6L1553 867.2L1491.2 919.4L1438.4 857C1408 871 1375.6 878 1341.2 878C1278.8 878 1226.4 857.2 1184 815.6C1141.6 774 1120.4 722.8 1120.4 662C1120.4 601.2 1141.6 550 1184 508.4C1226.4 466.8 1278.8 446 1341.2 446C1403.6 446 1456 466.8 1498.4 508.4C1540.8 550 1562 601.2 1562 662ZM1341.2 799.4C1356.4 799.4 1370.8 797 1384.4 792.2L1334 732.8L1395.8 680.6L1448.6 743.6C1465 719.6 1473.2 692.4 1473.2 662C1473.2 623.2 1460.6 590.6 1435.4 564.2C1410.2 537.8 1378.8 524.6 1341.2 524.6C1304 524.6 1272.6 537.8 1247 564.2C1221.8 590.6 1209.2 623.2 1209.2 662C1209.2 700.8 1221.8 733.4 1247 759.8C1272.6 786.2 1304 799.4 1341.2 799.4ZM1590.77 741.2V562.4H1671.77V741.2C1671.77 760 1677.77 775.2 1689.77 786.8C1701.77 798.4 1717.17 804.2 1735.97 804.2C1754.77 804.2 1770.17 798.4 1782.17 786.8C1794.17 775.2 1800.17 760 1800.17 741.2V562.4H1881.17V741.2C1881.17 781.6 1867.57 814.6 1840.37 840.2C1813.17 865.4 1778.37 878 1735.97 878C1693.57 878 1658.77 865.4 1631.57 840.2C1604.37 814.6 1590.77 781.6 1590.77 741.2ZM2076.24 556.4C2128.24 556.4 2169.84 575.2 2201.04 612.8C2232.64 650 2244.24 694.4 2235.84 746H1997.04C2002.64 764.8 2012.84 780 2027.64 791.6C2042.84 802.8 2060.84 808.4 2081.64 808.4C2116.84 808.4 2142.44 794 2158.44 765.2L2225.04 795.2C2211.04 820.4 2191.24 840.6 2165.64 855.8C2140.44 870.6 2111.64 878 2079.24 878C2032.04 878 1992.64 862.6 1961.04 831.8C1929.44 801 1913.64 762.8 1913.64 717.2C1913.64 671.6 1929.24 633.4 1960.44 602.6C1991.64 571.8 2030.24 556.4 2076.24 556.4ZM2076.24 626C2058.24 626 2042.04 631.4 2027.64 642.2C2013.64 652.6 2003.84 666.6 1998.24 684.2H2154.84C2149.24 666.6 2139.44 652.6 2125.44 642.2C2111.44 631.4 2095.04 626 2076.24 626ZM2426.28 556.4C2478.28 556.4 2519.88 575.2 2551.08 612.8C2582.68 650 2594.28 694.4 2585.88 746H2347.08C2352.68 764.8 2362.88 780 2377.68 791.6C2392.88 802.8 2410.88 808.4 2431.68 808.4C2466.88 808.4 2492.48 794 2508.48 765.2L2575.08 795.2C2561.08 820.4 2541.28 840.6 2515.68 855.8C2490.48 870.6 2461.68 878 2429.28 878C2382.08 878 2342.68 862.6 2311.08 831.8C2279.48 801 2263.68 762.8 2263.68 717.2C2263.68 671.6 2279.28 633.4 2310.48 602.6C2341.68 571.8 2380.28 556.4 2426.28 556.4ZM2426.28 626C2408.28 626 2392.08 631.4 2377.68 642.2C2363.68 652.6 2353.88 666.6 2348.28 684.2H2504.88C2499.28 666.6 2489.48 652.6 2475.48 642.2C2461.48 631.4 2445.08 626 2426.28 626ZM2707.89 562.4V602.6C2721.49 583.8 2738.69 570.6 2759.49 563C2780.29 555 2801.69 554.4 2823.69 561.2V638C2791.29 626.8 2763.89 627.4 2741.49 639.8C2719.09 651.8 2707.89 671.4 2707.89 698.6V872H2626.89V562.4H2707.89ZM3069.78 815.6C3027.38 774 3006.18 722.8 3006.18 662C3006.18 601.2 3027.38 550 3069.78 508.4C3112.18 466.8 3164.58 446 3226.98 446C3272.98 446 3313.38 457.8 3348.18 481.4C3382.98 505 3407.98 533.8 3423.18 567.8L3343.98 598.4C3333.58 576.8 3317.98 559.2 3297.18 545.6C3276.78 531.6 3253.38 524.6 3226.98 524.6C3189.78 524.6 3158.38 537.8 3132.78 564.2C3107.58 590.6 3094.98 623.2 3094.98 662C3094.98 700.8 3107.58 733.4 3132.78 759.8C3158.38 786.2 3189.78 799.4 3226.98 799.4C3253.38 799.4 3276.78 792.6 3297.18 779C3317.98 765 3333.58 747.2 3343.98 725.6L3423.18 756.2C3407.98 790.2 3382.98 819 3348.18 842.6C3313.38 866.2 3272.98 878 3226.98 878C3164.58 878 3112.18 857.2 3069.78 815.6ZM3485.07 831.8C3453.47 801 3437.67 762.8 3437.67 717.2C3437.67 671.6 3453.47 633.4 3485.07 602.6C3516.67 571.8 3556.07 556.4 3603.27 556.4C3650.47 556.4 3689.87 571.8 3721.47 602.6C3753.07 633.4 3768.87 671.6 3768.87 717.2C3768.87 762.8 3753.07 801 3721.47 831.8C3689.87 862.6 3650.47 878 3603.27 878C3556.07 878 3516.67 862.6 3485.07 831.8ZM3521.67 717.2C3521.67 742 3529.47 762.8 3545.07 779.6C3560.67 796 3580.07 804.2 3603.27 804.2C3626.47 804.2 3645.87 796 3661.47 779.6C3677.07 762.8 3684.87 742 3684.87 717.2C3684.87 692.4 3677.07 671.8 3661.47 655.4C3645.87 639 3626.47 630.8 3603.27 630.8C3580.07 630.8 3560.67 639.2 3545.07 656C3529.47 672.4 3521.67 692.8 3521.67 717.2ZM4040.76 599V428H4121.76V872H4040.76V835.4C4014.76 863.8 3981.96 878 3942.36 878C3899.96 878 3864.56 862.6 3836.16 831.8C3807.76 801 3793.56 762.8 3793.56 717.2C3793.56 671.6 3807.76 633.4 3836.16 602.6C3864.56 571.8 3899.96 556.4 3942.36 556.4C3981.96 556.4 4014.76 570.6 4040.76 599ZM3900.96 779.6C3916.56 796 3935.96 804.2 3959.16 804.2C3982.36 804.2 4001.76 796 4017.36 779.6C4032.96 762.8 4040.76 742 4040.76 717.2C4040.76 692.4 4032.96 671.8 4017.36 655.4C4001.76 639 3982.36 630.8 3959.16 630.8C3935.96 630.8 3916.56 639.2 3900.96 656C3885.36 672.4 3877.56 692.8 3877.56 717.2C3877.56 742 3885.36 762.8 3900.96 779.6ZM4322.02 556.4C4374.02 556.4 4415.62 575.2 4446.82 612.8C4478.42 650 4490.02 694.4 4481.62 746H4242.82C4248.42 764.8 4258.62 780 4273.42 791.6C4288.62 802.8 4306.62 808.4 4327.42 808.4C4362.62 808.4 4388.22 794 4404.22 765.2L4470.82 795.2C4456.82 820.4 4437.02 840.6 4411.42 855.8C4386.22 870.6 4357.42 878 4325.02 878C4277.82 878 4238.42 862.6 4206.82 831.8C4175.22 801 4159.42 762.8 4159.42 717.2C4159.42 671.6 4175.02 633.4 4206.22 602.6C4237.42 571.8 4276.02 556.4 4322.02 556.4ZM4322.02 626C4304.02 626 4287.82 631.4 4273.42 642.2C4259.42 652.6 4249.62 666.6 4244.02 684.2H4400.62C4395.02 666.6 4385.22 652.6 4371.22 642.2C4357.22 631.4 4340.82 626 4322.02 626ZM4756.66 599V428H4837.66V872H4756.66V835.4C4730.66 863.8 4697.86 878 4658.26 878C4615.86 878 4580.46 862.6 4552.06 831.8C4523.66 801 4509.46 762.8 4509.46 717.2C4509.46 671.6 4523.66 633.4 4552.06 602.6C4580.46 571.8 4615.86 556.4 4658.26 556.4C4697.86 556.4 4730.66 570.6 4756.66 599ZM4616.86 779.6C4632.46 796 4651.86 804.2 4675.06 804.2C4698.26 804.2 4717.66 796 4733.26 779.6C4748.86 762.8 4756.66 742 4756.66 717.2C4756.66 692.4 4748.86 671.8 4733.26 655.4C4717.66 639 4698.26 630.8 4675.06 630.8C4651.86 630.8 4632.46 639.2 4616.86 656C4601.26 672.4 4593.46 692.8 4593.46 717.2C4593.46 742 4601.26 762.8 4616.86 779.6Z"
    fill="#EEEEEE" />
</svg>