<svg width="4641" height="900" viewBox="0 0 4641 900" fill="none" xmlns="http://www.w3.org/2000/svg">
  <path d="M438 409C438 612.733 438 748.556 438 791" stroke="#DA3AD7" stroke-width="32" />
  <path d="M691 728C556.067 761.6 466.111 784 438 791" stroke="#C8C8C8" stroke-width="32" />
  <path d="M691 346C556.067 379.6 466.111 402 438 409" stroke="#00B3E3" stroke-width="32" />
  <path d="M60 123C60 326.733 60 462.556 60 505" stroke="#FF6B00" stroke-width="32" />
  <path d="M313 60C313 263.733 313 399.556 313 442" stroke="#FFC843" stroke-width="32" />
  <path d="M313 442C178.067 475.6 88.1111 498 60 505" stroke="#05CE7C" stroke-width="32" />
  <path d="M313 60C178.067 93.6 88.1111 116 60 123" stroke="#DA2D2F" stroke-width="32" />
  <path d="M438 277C303.067 310.6 213.111 333 185 340" stroke="#042F57" stroke-width="32" />
  <path d="M438 409C438 338.6 438 291.667 438 277" stroke="#973ADA" stroke-width="32" />
  <circle cx="60" cy="123" r="60" fill="#DA2D2F" />
  <circle cx="60" cy="505" r="60" fill="#FF6B00" />
  <circle cx="313" cy="442" r="60" fill="#05CE7C" />
  <circle cx="438" cy="791" r="60" fill="#C8C8C8" />
  <circle cx="691" cy="728" r="60" fill="#603814" />
  <circle cx="313" cy="60" r="60" fill="#FFC843" />
  <circle cx="185" cy="340" r="60" fill="#042F57" />
  <circle cx="438" cy="277" r="60" fill="#973ADA" />
  <circle cx="438" cy="409" r="60" fill="#DA3AD7" />
  <circle cx="691" cy="346" r="60" fill="#00B3E3" />
  <path
    d="M1333 426C1333 483.6 1313.8 532.8 1275.4 573.6L1324 631.2L1262.2 683.4L1209.4 621C1179 635 1146.6 642 1112.2 642C1049.8 642 997.4 621.2 955 579.6C912.6 538 891.4 486.8 891.4 426C891.4 365.2 912.6 314 955 272.4C997.4 230.8 1049.8 210 1112.2 210C1174.6 210 1227 230.8 1269.4 272.4C1311.8 314 1333 365.2 1333 426ZM1112.2 563.4C1127.4 563.4 1141.8 561 1155.4 556.2L1105 496.8L1166.8 444.6L1219.6 507.6C1236 483.6 1244.2 456.4 1244.2 426C1244.2 387.2 1231.6 354.6 1206.4 328.2C1181.2 301.8 1149.8 288.6 1112.2 288.6C1075 288.6 1043.6 301.8 1018 328.2C992.8 354.6 980.2 387.2 980.2 426C980.2 464.8 992.8 497.4 1018 523.8C1043.6 550.2 1075 563.4 1112.2 563.4ZM1361.77 505.2V326.4H1442.77V505.2C1442.77 524 1448.77 539.2 1460.77 550.8C1472.77 562.4 1488.17 568.2 1506.97 568.2C1525.77 568.2 1541.17 562.4 1553.17 550.8C1565.17 539.2 1571.17 524 1571.17 505.2V326.4H1652.17V505.2C1652.17 545.6 1638.57 578.6 1611.37 604.2C1584.17 629.4 1549.37 642 1506.97 642C1464.57 642 1429.77 629.4 1402.57 604.2C1375.37 578.6 1361.77 545.6 1361.77 505.2ZM1847.24 320.4C1899.24 320.4 1940.84 339.2 1972.04 376.8C2003.64 414 2015.24 458.4 2006.84 510H1768.04C1773.64 528.8 1783.84 544 1798.64 555.6C1813.84 566.8 1831.84 572.4 1852.64 572.4C1887.84 572.4 1913.44 558 1929.44 529.2L1996.04 559.2C1982.04 584.4 1962.24 604.6 1936.64 619.8C1911.44 634.6 1882.64 642 1850.24 642C1803.04 642 1763.64 626.6 1732.04 595.8C1700.44 565 1684.64 526.8 1684.64 481.2C1684.64 435.6 1700.24 397.4 1731.44 366.6C1762.64 335.8 1801.24 320.4 1847.24 320.4ZM1847.24 390C1829.24 390 1813.04 395.4 1798.64 406.2C1784.64 416.6 1774.84 430.6 1769.24 448.2H1925.84C1920.24 430.6 1910.44 416.6 1896.44 406.2C1882.44 395.4 1866.04 390 1847.24 390ZM2197.28 320.4C2249.28 320.4 2290.88 339.2 2322.08 376.8C2353.68 414 2365.28 458.4 2356.88 510H2118.08C2123.68 528.8 2133.88 544 2148.68 555.6C2163.88 566.8 2181.88 572.4 2202.68 572.4C2237.88 572.4 2263.48 558 2279.48 529.2L2346.08 559.2C2332.08 584.4 2312.28 604.6 2286.68 619.8C2261.48 634.6 2232.68 642 2200.28 642C2153.08 642 2113.68 626.6 2082.08 595.8C2050.48 565 2034.68 526.8 2034.68 481.2C2034.68 435.6 2050.28 397.4 2081.48 366.6C2112.68 335.8 2151.28 320.4 2197.28 320.4ZM2197.28 390C2179.28 390 2163.08 395.4 2148.68 406.2C2134.68 416.6 2124.88 430.6 2119.28 448.2H2275.88C2270.28 430.6 2260.48 416.6 2246.48 406.2C2232.48 395.4 2216.08 390 2197.28 390ZM2478.89 326.4V366.6C2492.49 347.8 2509.69 334.6 2530.49 327C2551.29 319 2572.69 318.4 2594.69 325.2V402C2562.29 390.8 2534.89 391.4 2512.49 403.8C2490.09 415.8 2478.89 435.4 2478.89 462.6V636H2397.89V326.4H2478.89ZM2840.78 579.6C2798.38 538 2777.18 486.8 2777.18 426C2777.18 365.2 2798.38 314 2840.78 272.4C2883.18 230.8 2935.58 210 2997.98 210C3043.98 210 3084.38 221.8 3119.18 245.4C3153.98 269 3178.98 297.8 3194.18 331.8L3114.98 362.4C3104.58 340.8 3088.98 323.2 3068.18 309.6C3047.78 295.6 3024.38 288.6 2997.98 288.6C2960.78 288.6 2929.38 301.8 2903.78 328.2C2878.58 354.6 2865.98 387.2 2865.98 426C2865.98 464.8 2878.58 497.4 2903.78 523.8C2929.38 550.2 2960.78 563.4 2997.98 563.4C3024.38 563.4 3047.78 556.6 3068.18 543C3088.98 529 3104.58 511.2 3114.98 489.6L3194.18 520.2C3178.98 554.2 3153.98 583 3119.18 606.6C3084.38 630.2 3043.98 642 2997.98 642C2935.58 642 2883.18 621.2 2840.78 579.6ZM3256.07 595.8C3224.47 565 3208.67 526.8 3208.67 481.2C3208.67 435.6 3224.47 397.4 3256.07 366.6C3287.67 335.8 3327.07 320.4 3374.27 320.4C3421.47 320.4 3460.87 335.8 3492.47 366.6C3524.07 397.4 3539.87 435.6 3539.87 481.2C3539.87 526.8 3524.07 565 3492.47 595.8C3460.87 626.6 3421.47 642 3374.27 642C3327.07 642 3287.67 626.6 3256.07 595.8ZM3292.67 481.2C3292.67 506 3300.47 526.8 3316.07 543.6C3331.67 560 3351.07 568.2 3374.27 568.2C3397.47 568.2 3416.87 560 3432.47 543.6C3448.07 526.8 3455.87 506 3455.87 481.2C3455.87 456.4 3448.07 435.8 3432.47 419.4C3416.87 403 3397.47 394.8 3374.27 394.8C3351.07 394.8 3331.67 403.2 3316.07 420C3300.47 436.4 3292.67 456.8 3292.67 481.2ZM3811.76 363V192H3892.76V636H3811.76V599.4C3785.76 627.8 3752.96 642 3713.36 642C3670.96 642 3635.56 626.6 3607.16 595.8C3578.76 565 3564.56 526.8 3564.56 481.2C3564.56 435.6 3578.76 397.4 3607.16 366.6C3635.56 335.8 3670.96 320.4 3713.36 320.4C3752.96 320.4 3785.76 334.6 3811.76 363ZM3671.96 543.6C3687.56 560 3706.96 568.2 3730.16 568.2C3753.36 568.2 3772.76 560 3788.36 543.6C3803.96 526.8 3811.76 506 3811.76 481.2C3811.76 456.4 3803.96 435.8 3788.36 419.4C3772.76 403 3753.36 394.8 3730.16 394.8C3706.96 394.8 3687.56 403.2 3671.96 420C3656.36 436.4 3648.56 456.8 3648.56 481.2C3648.56 506 3656.36 526.8 3671.96 543.6ZM4093.02 320.4C4145.02 320.4 4186.62 339.2 4217.82 376.8C4249.42 414 4261.02 458.4 4252.62 510H4013.82C4019.42 528.8 4029.62 544 4044.42 555.6C4059.62 566.8 4077.62 572.4 4098.42 572.4C4133.62 572.4 4159.22 558 4175.22 529.2L4241.82 559.2C4227.82 584.4 4208.02 604.6 4182.42 619.8C4157.22 634.6 4128.42 642 4096.02 642C4048.82 642 4009.42 626.6 3977.82 595.8C3946.22 565 3930.42 526.8 3930.42 481.2C3930.42 435.6 3946.02 397.4 3977.22 366.6C4008.42 335.8 4047.02 320.4 4093.02 320.4ZM4093.02 390C4075.02 390 4058.82 395.4 4044.42 406.2C4030.42 416.6 4020.62 430.6 4015.02 448.2H4171.62C4166.02 430.6 4156.22 416.6 4142.22 406.2C4128.22 395.4 4111.82 390 4093.02 390ZM4527.66 363V192H4608.66V636H4527.66V599.4C4501.66 627.8 4468.86 642 4429.26 642C4386.86 642 4351.46 626.6 4323.06 595.8C4294.66 565 4280.46 526.8 4280.46 481.2C4280.46 435.6 4294.66 397.4 4323.06 366.6C4351.46 335.8 4386.86 320.4 4429.26 320.4C4468.86 320.4 4501.66 334.6 4527.66 363ZM4387.86 543.6C4403.46 560 4422.86 568.2 4446.06 568.2C4469.26 568.2 4488.66 560 4504.26 543.6C4519.86 526.8 4527.66 506 4527.66 481.2C4527.66 456.4 4519.86 435.8 4504.26 419.4C4488.66 403 4469.26 394.8 4446.06 394.8C4422.86 394.8 4403.46 403.2 4387.86 420C4372.26 436.4 4364.46 456.8 4364.46 481.2C4364.46 506 4372.26 526.8 4387.86 543.6Z"
    fill="#EEEEEE" />
</svg>